<?xml version="1.0" encoding="UTF-8" standalone="no"?>
<!-- Generator: Adobe Illustrator 12.0.1, SVG Export Plug-In . SVG Version: 6.00 Build 51448)  -->
<svg
   xmlns:dc="http://purl.org/dc/elements/1.1/"
   xmlns:cc="http://web.resource.org/cc/"
   xmlns:rdf="http://www.w3.org/1999/02/22-rdf-syntax-ns#"
   xmlns:svg="http://www.w3.org/2000/svg"
   xmlns="http://www.w3.org/2000/svg"
   xmlns:sodipodi="http://sodipodi.sourceforge.net/DTD/sodipodi-0.dtd"
   xmlns:inkscape="http://www.inkscape.org/namespaces/inkscape"
   version="1.1"
   id="Layer_1"
   width="157.452"
   height="170.132"
   viewBox="0 0 157.452 170.132"
   style="overflow:visible;enable-background:new 0 0 157.452 170.132;"
   xml:space="preserve"
   sodipodi:version="0.32"
   inkscape:version="0.44.1"
   sodipodi:docname="alpha-D-Glucopyranose.svg"
   sodipodi:docbase="E:\Eigene Dateien"><metadata
   id="metadata72"><rdf:RDF><cc:Work
       rdf:about=""><dc:format>image/svg+xml</dc:format><dc:type
         rdf:resource="http://purl.org/dc/dcmitype/StillImage" /></cc:Work></rdf:RDF></metadata><defs
   id="defs70" /><sodipodi:namedview
   inkscape:window-height="573"
   inkscape:window-width="925"
   inkscape:pageshadow="2"
   inkscape:pageopacity="0.0"
   guidetolerance="10.0"
   gridtolerance="10.0"
   objecttolerance="10.0"
   borderopacity="1.0"
   bordercolor="#666666"
   pagecolor="#ffffff"
   id="base"
   inkscape:zoom="2.2218042"
   inkscape:cx="78.725998"
   inkscape:cy="85.066002"
   inkscape:window-x="198"
   inkscape:window-y="198"
   inkscape:current-layer="Layer_1" />
<path
   d="M 92.65965,116.48157 L 95.41465,118.90407 L 94.6081,121.32562 L 43.6881,121.32562 L 46.39465,118.90407 L 47.20215,116.48157 L 92.65965,116.48157 z "
   id="polygon3" />
<path
   d="M 12.52715,86.366575 L 11.71965,84.275625 L 12.90715,84.229075 L 45.5881,113.34562 L 46.39465,118.90407 L 43.6881,121.32562 L 12.52715,86.366575 z "
   id="polygon5" />
<path
   d="M 45.5881,49.269075 L 46.39465,49.600625 L 46.72715,50.408125 L 12.90715,84.229075 L 11.71965,84.275625 L 10.9131,83.944075 L 45.5881,49.269075 z "
   id="polygon7" />
<g
   id="g9"
   transform="matrix(0.95,0,0,0.95,3.9363,4.253325)">
	<path
   d="M 88.049,48.819 C 88.049,45.967 88.815,43.734 90.348,42.12 C 91.879,40.507 93.858,39.7 96.28,39.7 C 97.868,39.7 99.298,40.079 100.571,40.837 C 101.845,41.595 102.817,42.652 103.485,44.008 C 104.153,45.364 104.487,46.902 104.487,48.62 C 104.487,50.362 104.135,51.922 103.432,53.297 C 102.729,54.673 101.732,55.714 100.442,56.421 C 99.153,57.128 97.761,57.482 96.268,57.482 C 94.651,57.482 93.204,57.091 91.93,56.31 C 90.656,55.529 89.692,54.462 89.034,53.11 C 88.377,51.758 88.049,50.327 88.049,48.819 z M 90.393,48.849 C 90.393,50.919 90.95,52.55 92.065,53.742 C 93.178,54.933 94.577,55.529 96.256,55.529 C 97.969,55.529 99.377,54.927 100.485,53.724 C 101.59,52.521 102.143,50.814 102.143,48.603 C 102.143,47.205 101.907,45.984 101.434,44.941 C 100.961,43.898 100.269,43.089 99.358,42.515 C 98.448,41.941 97.426,41.654 96.292,41.654 C 94.683,41.654 93.296,42.207 92.136,43.312 C 90.973,44.417 90.393,46.263 90.393,48.849 z "
   id="path11" />
</g>
<path
   d="M 85.43965,48.794075 L 85.43965,50.408125 L 46.72715,50.408125 L 46.39465,49.600625 L 47.20215,48.794075 L 85.43965,48.794075 z "
   id="polygon13" />
<path
   d="M 130.8506,83.944075 L 130.04215,84.275625 L 128.85465,84.229075 L 102.5881,57.961575 L 103.72715,56.820625 L 130.8506,83.944075 z "
   id="polygon15" />
<path
   d="M 96.22215,123.46312 L 95.41465,118.90407 L 92.65965,116.48157 L 128.85465,84.229075 L 130.04215,84.275625 L 129.23465,86.366575 L 96.22215,123.46312 z "
   id="polygon17" />
<g
   id="g19"
   transform="matrix(0.95,0,0,0.95,3.9363,4.253325)">
	<path
   d="M 88.049,161.47 C 88.049,158.618 88.815,156.385 90.348,154.771 C 91.879,153.158 93.858,152.351 96.28,152.351 C 97.868,152.351 99.298,152.73 100.571,153.488 C 101.845,154.246 102.817,155.303 103.485,156.659 C 104.153,158.015 104.487,159.553 104.487,161.271 C 104.487,163.013 104.135,164.573 103.432,165.948 C 102.729,167.324 101.732,168.365 100.442,169.072 C 99.153,169.779 97.761,170.133 96.268,170.133 C 94.651,170.133 93.204,169.742 91.93,168.961 C 90.656,168.18 89.692,167.113 89.034,165.761 C 88.377,164.408 88.049,162.978 88.049,161.47 z M 90.393,161.499 C 90.393,163.569 90.95,165.2 92.065,166.392 C 93.178,167.583 94.577,168.179 96.256,168.179 C 97.969,168.179 99.377,167.577 100.485,166.374 C 101.59,165.171 102.143,163.464 102.143,161.253 C 102.143,159.855 101.907,158.634 101.434,157.591 C 100.961,156.548 100.269,155.739 99.358,155.165 C 98.448,154.591 97.426,154.304 96.292,154.304 C 94.683,154.304 93.296,154.857 92.136,155.962 C 90.973,157.067 90.393,158.913 90.393,161.499 z "
   id="path21" />
	<path
   d="M 107.499,169.835 L 107.499,152.647 L 109.78,152.647 L 109.78,159.71 L 118.671,159.71 L 118.671,152.647 L 120.952,152.647 L 120.952,169.835 L 118.671,169.835 L 118.671,161.741 L 109.78,161.741 L 109.78,169.835 L 107.499,169.835 z "
   id="path23" />
</g>
<path
   d="M 96.22215,146.88157 L 94.6081,146.88157 L 94.6081,121.32562 L 95.41465,118.90407 L 96.22215,123.46312 L 96.22215,146.88157 z "
   id="polygon25" />
<g
   id="g27"
   transform="matrix(0.95,0,0,0.95,3.9363,4.253325)">
	<path
   d="M 124.549,124.97 C 124.549,122.118 125.315,119.885 126.848,118.271 C 128.379,116.658 130.358,115.851 132.78,115.851 C 134.368,115.851 135.798,116.23 137.071,116.988 C 138.345,117.746 139.317,118.803 139.985,120.159 C 140.653,121.515 140.987,123.053 140.987,124.771 C 140.987,126.513 140.635,128.073 139.932,129.448 C 139.229,130.824 138.232,131.865 136.942,132.572 C 135.653,133.279 134.261,133.633 132.768,133.633 C 131.151,133.633 129.704,133.242 128.43,132.461 C 127.156,131.68 126.192,130.613 125.534,129.261 C 124.877,127.908 124.549,126.478 124.549,124.97 z M 126.893,124.999 C 126.893,127.069 127.45,128.7 128.565,129.892 C 129.678,131.083 131.077,131.679 132.756,131.679 C 134.469,131.679 135.877,131.077 136.985,129.874 C 138.09,128.671 138.643,126.964 138.643,124.753 C 138.643,123.355 138.407,122.134 137.934,121.091 C 137.461,120.048 136.769,119.239 135.858,118.665 C 134.948,118.091 133.926,117.804 132.792,117.804 C 131.183,117.804 129.796,118.357 128.636,119.462 C 127.473,120.567 126.893,122.413 126.893,124.999 z "
   id="path29" />
	<path
   d="M 143.999,133.335 L 143.999,116.147 L 146.28,116.147 L 146.28,123.21 L 155.171,123.21 L 155.171,116.147 L 157.452,116.147 L 157.452,133.335 L 155.171,133.335 L 155.171,125.241 L 146.28,125.241 L 146.28,133.335 L 143.999,133.335 z "
   id="path31" />
</g>
<path
   d="M 130.8506,112.20657 L 129.23465,112.20657 L 129.23465,86.366575 L 130.04215,84.275625 L 130.8506,83.944075 L 130.8506,112.20657 z "
   id="polygon33" />
<g
   id="g35"
   transform="matrix(0.95,0,0,0.95,3.9363,4.253325)">
	<path
   d="M 0,124.97 C 0,122.118 0.766,119.885 2.298,118.271 C 3.83,116.658 5.808,115.851 8.231,115.851 C 9.818,115.851 11.248,116.23 12.522,116.988 C 13.796,117.746 14.767,118.803 15.436,120.159 C 16.104,121.515 16.438,123.053 16.438,124.771 C 16.438,126.513 16.086,128.073 15.383,129.448 C 14.679,130.824 13.683,131.865 12.393,132.572 C 11.103,133.279 9.712,133.633 8.219,133.633 C 6.601,133.633 5.155,133.242 3.881,132.461 C 2.607,131.68 1.642,130.613 0.985,129.261 C 0.328,127.908 0,126.478 0,124.97 z M 2.344,124.999 C 2.344,127.069 2.901,128.7 4.015,129.892 C 5.129,131.084 6.527,131.679 8.207,131.679 C 9.919,131.679 11.328,131.077 12.435,129.874 C 13.541,128.671 14.094,126.964 14.094,124.753 C 14.094,123.355 13.858,122.134 13.385,121.091 C 12.912,120.048 12.22,119.239 11.309,118.665 C 10.398,118.091 9.376,117.804 8.243,117.804 C 6.633,117.804 5.247,118.357 4.086,119.462 C 2.925,120.567 2.344,122.413 2.344,124.999 z "
   id="path37" />
	<path
   d="M 19.449,133.335 L 19.449,116.147 L 21.73,116.147 L 21.73,123.21 L 30.621,123.21 L 30.621,116.147 L 32.902,116.147 L 32.902,133.335 L 30.621,133.335 L 30.621,125.241 L 21.73,125.241 L 21.73,133.335 L 19.449,133.335 z "
   id="path39" />
</g>
<path
   d="M 12.52715,112.20657 L 10.9131,112.20657 L 10.9131,83.944075 L 11.71965,84.275625 L 12.52715,86.366575 L 12.52715,112.20657 z "
   id="polygon41" />
<g
   id="g43"
   transform="matrix(0.95,0,0,0.95,3.9363,4.253325)">
	<path
   d="M 36.45,82.119 C 36.45,79.267 37.216,77.034 38.748,75.42 C 40.28,73.807 42.257,73 44.68,73 C 46.267,73 47.697,73.379 48.971,74.137 C 50.245,74.895 51.216,75.952 51.885,77.308 C 52.553,78.664 52.887,80.202 52.887,81.92 C 52.887,83.662 52.535,85.222 51.832,86.597 C 51.128,87.973 50.132,89.014 48.842,89.721 C 47.552,90.428 46.161,90.782 44.668,90.782 C 43.05,90.782 41.604,90.391 40.33,89.61 C 39.056,88.829 38.091,87.762 37.434,86.41 C 36.778,85.058 36.45,83.627 36.45,82.119 z M 38.793,82.148 C 38.793,84.218 39.35,85.849 40.464,87.041 C 41.578,88.233 42.976,88.828 44.656,88.828 C 46.368,88.828 47.777,88.226 48.884,87.023 C 49.99,85.82 50.543,84.113 50.543,81.902 C 50.543,80.504 50.307,79.283 49.834,78.24 C 49.361,77.197 48.669,76.388 47.758,75.814 C 46.847,75.24 45.825,74.953 44.692,74.953 C 43.082,74.953 41.696,75.506 40.535,76.611 C 39.374,77.716 38.793,79.563 38.793,82.148 z "
   id="path45" />
	<path
   d="M 55.899,90.484 L 55.899,73.297 L 58.18,73.297 L 58.18,80.36 L 67.071,80.36 L 67.071,73.297 L 69.352,73.297 L 69.352,90.485 L 67.071,90.485 L 67.071,82.391 L 58.18,82.391 L 58.18,90.485 L 55.899,90.485 L 55.899,90.484 z "
   id="path47" />
</g>
<path
   d="M 45.5881,92.588125 L 47.20215,92.588125 L 47.20215,116.48157 L 46.39465,118.90407 L 45.5881,113.34562 L 45.5881,92.588125 z "
   id="polygon49" />
<g
   id="g51"
   transform="matrix(0.95,0,0,0.95,3.9363,4.253325)">
	<path
   d="M 50.137,11.457 L 52.418,12.031 C 51.942,13.901 51.085,15.327 49.849,16.308 C 48.612,17.29 47.099,17.781 45.312,17.781 C 43.462,17.781 41.958,17.404 40.799,16.649 C 39.64,15.894 38.758,14.802 38.153,13.371 C 37.548,11.94 37.246,10.404 37.246,8.762 C 37.246,6.971 37.587,5.409 38.27,4.076 C 38.953,2.742 39.924,1.73 41.185,1.038 C 42.445,0.346 43.832,0 45.345,0 C 47.062,0 48.505,0.438 49.675,1.314 C 50.846,2.191 51.661,3.423 52.121,5.011 L 49.887,5.538 C 49.489,4.288 48.912,3.378 48.156,2.808 C 47.399,2.238 46.447,1.953 45.301,1.953 C 43.983,1.953 42.881,2.269 41.995,2.902 C 41.11,3.535 40.488,4.384 40.129,5.451 C 39.77,6.518 39.59,7.617 39.59,8.75 C 39.59,10.211 39.802,11.486 40.227,12.576 C 40.652,13.666 41.312,14.48 42.209,15.019 C 43.106,15.558 44.076,15.828 45.121,15.828 C 46.392,15.828 47.467,15.461 48.348,14.726 C 49.229,13.991 49.825,12.902 50.137,11.457 z "
   id="path53" />
	<path
   d="M 55.313,17.484 L 55.313,0.297 L 57.594,0.297 L 57.594,7.36 L 66.485,7.36 L 66.485,0.297 L 68.766,0.297 L 68.766,17.485 L 66.485,17.485 L 66.485,9.391 L 57.594,9.391 L 57.594,17.485 L 55.313,17.485 L 55.313,17.484 z "
   id="path55" />
</g>
<g
   id="g57"
   transform="matrix(0.95,0,0,0.95,3.9363,4.253325)">
	<path
   d="M 78.676,20.469 L 78.676,21.985 L 70.145,21.985 C 70.133,21.604 70.195,21.238 70.331,20.885 C 70.549,20.305 70.898,19.735 71.379,19.173 C 71.859,18.611 72.549,17.962 73.449,17.225 C 74.845,16.073 75.791,15.162 76.289,14.492 C 76.787,13.822 77.036,13.188 77.036,12.589 C 77.036,11.963 76.811,11.435 76.361,11.005 C 75.911,10.575 75.324,10.36 74.601,10.36 C 73.835,10.36 73.224,10.589 72.765,11.048 C 72.306,11.506 72.074,12.142 72.068,12.953 L 70.443,12.781 C 70.554,11.566 70.974,10.639 71.703,10.002 C 72.431,9.365 73.409,9.047 74.637,9.047 C 75.876,9.047 76.857,9.39 77.579,10.076 C 78.301,10.762 78.662,11.611 78.662,12.626 C 78.662,13.143 78.556,13.649 78.345,14.147 C 78.134,14.645 77.782,15.169 77.292,15.721 C 76.801,16.272 75.988,17.029 74.852,17.99 C 73.901,18.787 73.29,19.328 73.019,19.611 C 72.748,19.896 72.523,20.181 72.346,20.468 L 78.676,20.468 L 78.676,20.469 z "
   id="path59" />
</g>
<g
   id="g61"
   transform="matrix(0.95,0,0,0.95,3.9363,4.253325)">
	<path
   d="M 80.003,9.119 C 80.003,6.267 80.769,4.034 82.301,2.42 C 83.833,0.807 85.811,0 88.234,0 C 89.821,0 91.251,0.379 92.525,1.137 C 93.799,1.895 94.77,2.952 95.438,4.308 C 96.107,5.664 96.441,7.202 96.441,8.92 C 96.441,10.662 96.089,12.222 95.385,13.597 C 94.682,14.973 93.686,16.014 92.396,16.721 C 91.106,17.428 89.715,17.782 88.222,17.782 C 86.604,17.782 85.158,17.391 83.884,16.61 C 82.61,15.829 81.645,14.762 80.988,13.41 C 80.332,12.058 80.003,10.627 80.003,9.119 z M 82.347,9.148 C 82.347,11.218 82.904,12.849 84.018,14.041 C 85.132,15.233 86.53,15.828 88.21,15.828 C 89.922,15.828 91.331,15.226 92.438,14.023 C 93.543,12.82 94.097,11.113 94.097,8.902 C 94.097,7.504 93.861,6.283 93.387,5.24 C 92.914,4.197 92.223,3.388 91.312,2.814 C 90.401,2.24 89.379,1.953 88.246,1.953 C 86.636,1.953 85.25,2.506 84.089,3.611 C 82.928,4.716 82.347,6.563 82.347,9.148 z "
   id="path63" />
	<path
   d="M 99.453,17.484 L 99.453,0.297 L 101.734,0.297 L 101.734,7.36 L 110.625,7.36 L 110.625,0.297 L 112.906,0.297 L 112.906,17.485 L 110.625,17.485 L 110.625,9.391 L 101.734,9.391 L 101.734,17.485 L 99.453,17.485 L 99.453,17.484 z "
   id="path65" />
</g>
<path
   d="M 45.5881,23.286575 L 47.20215,23.286575 L 47.20215,48.794075 L 46.39465,49.600625 L 45.5881,49.269075 L 45.5881,23.286575 z "
   id="polygon67" />
</svg>